<svg xmlns="http://www.w3.org/2000/svg" viewBox="0 0 260 112" role="img" aria-labelledby="title">
  <title id="title">eand money</title>
  <rect width="260" height="112" rx="18" fill="#fff"/>
  <g transform="translate(43 11)" fill="#e30613">
    <path d="M55 45H14c2 12 11 19 25 19 11 0 20-4 28-11l12 15C67 79 53 84 37 84 14 84 0 70 0 49 0 28 15 13 37 13c23 0 38 16 36 42H22c2 7 8 10 17 10 8 0 15-3 22-8L55 45Zm-6-13c-2-8-7-12-15-12-8 0-14 5-17 12h32Z"/>
  </g>
  <text x="139" y="73" fill="#e30613" font-family="Arial, sans-serif" font-size="42" font-weight="900">and</text>
  <text x="130" y="103" text-anchor="middle" fill="#681329" font-family="Arial, sans-serif" font-size="30" font-weight="800">money</text>
</svg>
